<svg xmlns="http://www.w3.org/2000/svg" width="826" height="494" viewBox="0 0 826 494" font-family="'DejaVu Sans Mono','Menlo',monospace" font-size="14.5">
<rect x="0" y="0" width="826" height="494" rx="10" fill="#0b1020"/>
<rect x="17.20" y="19.00" width="9.10" height="19.00" fill="#38bdf8"/>
<rect x="25.80" y="19.00" width="9.10" height="19.00" fill="#38bdf8"/>
<rect x="34.40" y="19.00" width="9.10" height="19.00" fill="#38bdf8"/>
<rect x="43.00" y="19.00" width="9.10" height="19.00" fill="#38bdf8"/>
<rect x="51.60" y="19.00" width="9.10" height="19.00" fill="#38bdf8"/>
<rect x="60.20" y="19.00" width="9.10" height="19.00" fill="#38bdf8"/>
<rect x="68.80" y="19.00" width="9.10" height="19.00" fill="#38bdf8"/>
<rect x="77.40" y="19.00" width="9.10" height="19.00" fill="#38bdf8"/>
<text x="1.00" y="14.50" fill="#38bdf8" xml:space="preserve">╭</text>
<text x="18.20" y="14.50" fill="#38bdf8" font-weight="bold" xml:space="preserve">G</text>
<text x="26.80" y="14.50" fill="#38bdf8" font-weight="bold" xml:space="preserve">a</text>
<text x="35.40" y="14.50" fill="#38bdf8" font-weight="bold" xml:space="preserve">u</text>
<text x="44.00" y="14.50" fill="#38bdf8" font-weight="bold" xml:space="preserve">s</text>
<text x="52.60" y="14.50" fill="#38bdf8" font-weight="bold" xml:space="preserve">s</text>
<text x="61.20" y="14.50" fill="#38bdf8" font-weight="bold" xml:space="preserve">A</text>
<text x="69.80" y="14.50" fill="#38bdf8" font-weight="bold" xml:space="preserve">n</text>
<text x="78.40" y="14.50" fill="#38bdf8" font-weight="bold" xml:space="preserve">a</text>
<text x="87.00" y="14.50" fill="#38bdf8" font-weight="bold" xml:space="preserve">l</text>
<text x="95.60" y="14.50" fill="#38bdf8" font-weight="bold" xml:space="preserve">y</text>
<text x="104.20" y="14.50" fill="#38bdf8" font-weight="bold" xml:space="preserve">t</text>
<text x="112.80" y="14.50" fill="#38bdf8" font-weight="bold" xml:space="preserve">i</text>
<text x="121.40" y="14.50" fill="#38bdf8" font-weight="bold" xml:space="preserve">c</text>
<text x="130.00" y="14.50" fill="#38bdf8" font-weight="bold" xml:space="preserve">s</text>
<text x="147.20" y="14.50" fill="#38bdf8" font-weight="bold" xml:space="preserve">—</text>
<text x="164.40" y="14.50" fill="#38bdf8" font-weight="bold" xml:space="preserve">A</text>
<text x="173.00" y="14.50" fill="#38bdf8" font-weight="bold" xml:space="preserve">d</text>
<text x="181.60" y="14.50" fill="#38bdf8" font-weight="bold" xml:space="preserve">m</text>
<text x="190.20" y="14.50" fill="#38bdf8" font-weight="bold" xml:space="preserve">i</text>
<text x="198.80" y="14.50" fill="#38bdf8" font-weight="bold" xml:space="preserve">n</text>
<text x="216.00" y="14.50" fill="#38bdf8" font-weight="bold" xml:space="preserve">C</text>
<text x="224.60" y="14.50" fill="#38bdf8" font-weight="bold" xml:space="preserve">o</text>
<text x="233.20" y="14.50" fill="#38bdf8" font-weight="bold" xml:space="preserve">n</text>
<text x="241.80" y="14.50" fill="#38bdf8" font-weight="bold" xml:space="preserve">s</text>
<text x="250.40" y="14.50" fill="#38bdf8" font-weight="bold" xml:space="preserve">o</text>
<text x="259.00" y="14.50" fill="#38bdf8" font-weight="bold" xml:space="preserve">l</text>
<text x="267.60" y="14.50" fill="#38bdf8" font-weight="bold" xml:space="preserve">e</text>
<text x="284.80" y="14.50" fill="#38bdf8" xml:space="preserve">─</text>
<text x="293.40" y="14.50" fill="#38bdf8" xml:space="preserve">─</text>
<text x="302.00" y="14.50" fill="#38bdf8" xml:space="preserve">─</text>
<text x="310.60" y="14.50" fill="#38bdf8" xml:space="preserve">─</text>
<text x="319.20" y="14.50" fill="#38bdf8" xml:space="preserve">─</text>
<text x="327.80" y="14.50" fill="#38bdf8" xml:space="preserve">─</text>
<text x="336.40" y="14.50" fill="#38bdf8" xml:space="preserve">─</text>
<text x="345.00" y="14.50" fill="#38bdf8" xml:space="preserve">─</text>
<text x="353.60" y="14.50" fill="#38bdf8" xml:space="preserve">─</text>
<text x="362.20" y="14.50" fill="#38bdf8" xml:space="preserve">─</text>
<text x="370.80" y="14.50" fill="#38bdf8" xml:space="preserve">─</text>
<text x="379.40" y="14.50" fill="#38bdf8" xml:space="preserve">─</text>
<text x="388.00" y="14.50" fill="#38bdf8" xml:space="preserve">─</text>
<text x="396.60" y="14.50" fill="#38bdf8" xml:space="preserve">─</text>
<text x="405.20" y="14.50" fill="#38bdf8" xml:space="preserve">─</text>
<text x="413.80" y="14.50" fill="#38bdf8" xml:space="preserve">─</text>
<text x="422.40" y="14.50" fill="#38bdf8" xml:space="preserve">─</text>
<text x="431.00" y="14.50" fill="#38bdf8" xml:space="preserve">─</text>
<text x="439.60" y="14.50" fill="#38bdf8" xml:space="preserve">─</text>
<text x="448.20" y="14.50" fill="#38bdf8" xml:space="preserve">─</text>
<text x="456.80" y="14.50" fill="#38bdf8" xml:space="preserve">─</text>
<text x="465.40" y="14.50" fill="#38bdf8" xml:space="preserve">─</text>
<text x="474.00" y="14.50" fill="#38bdf8" xml:space="preserve">─</text>
<text x="482.60" y="14.50" fill="#38bdf8" xml:space="preserve">─</text>
<text x="491.20" y="14.50" fill="#38bdf8" xml:space="preserve">─</text>
<text x="499.80" y="14.50" fill="#38bdf8" xml:space="preserve">─</text>
<text x="508.40" y="14.50" fill="#38bdf8" xml:space="preserve">─</text>
<text x="517.00" y="14.50" fill="#38bdf8" xml:space="preserve">─</text>
<text x="525.60" y="14.50" fill="#38bdf8" xml:space="preserve">─</text>
<text x="534.20" y="14.50" fill="#38bdf8" xml:space="preserve">─</text>
<text x="542.80" y="14.50" fill="#38bdf8" xml:space="preserve">─</text>
<text x="551.40" y="14.50" fill="#38bdf8" xml:space="preserve">─</text>
<text x="560.00" y="14.50" fill="#38bdf8" xml:space="preserve">─</text>
<text x="568.60" y="14.50" fill="#38bdf8" xml:space="preserve">─</text>
<text x="577.20" y="14.50" fill="#38bdf8" xml:space="preserve">─</text>
<text x="585.80" y="14.50" fill="#38bdf8" xml:space="preserve">─</text>
<text x="594.40" y="14.50" fill="#38bdf8" xml:space="preserve">─</text>
<text x="603.00" y="14.50" fill="#38bdf8" xml:space="preserve">─</text>
<text x="611.60" y="14.50" fill="#38bdf8" xml:space="preserve">─</text>
<text x="620.20" y="14.50" fill="#38bdf8" xml:space="preserve">─</text>
<text x="628.80" y="14.50" fill="#38bdf8" xml:space="preserve">─</text>
<text x="637.40" y="14.50" fill="#38bdf8" xml:space="preserve">─</text>
<text x="646.00" y="14.50" fill="#38bdf8" xml:space="preserve">─</text>
<text x="654.60" y="14.50" fill="#38bdf8" xml:space="preserve">─</text>
<text x="663.20" y="14.50" fill="#38bdf8" xml:space="preserve">─</text>
<text x="671.80" y="14.50" fill="#38bdf8" xml:space="preserve">─</text>
<text x="680.40" y="14.50" fill="#38bdf8" xml:space="preserve">─</text>
<text x="689.00" y="14.50" fill="#38bdf8" xml:space="preserve">─</text>
<text x="697.60" y="14.50" fill="#38bdf8" xml:space="preserve">─</text>
<text x="706.20" y="14.50" fill="#38bdf8" xml:space="preserve">─</text>
<text x="714.80" y="14.50" fill="#38bdf8" xml:space="preserve">─</text>
<text x="723.40" y="14.50" fill="#38bdf8" xml:space="preserve">─</text>
<text x="732.00" y="14.50" fill="#38bdf8" xml:space="preserve">─</text>
<text x="740.60" y="14.50" fill="#38bdf8" xml:space="preserve">─</text>
<text x="749.20" y="14.50" fill="#38bdf8" xml:space="preserve">─</text>
<text x="757.80" y="14.50" fill="#38bdf8" xml:space="preserve">─</text>
<text x="766.40" y="14.50" fill="#38bdf8" xml:space="preserve">─</text>
<text x="775.00" y="14.50" fill="#38bdf8" xml:space="preserve">─</text>
<text x="783.60" y="14.50" fill="#38bdf8" xml:space="preserve">─</text>
<text x="792.20" y="14.50" fill="#38bdf8" xml:space="preserve">─</text>
<text x="800.80" y="14.50" fill="#38bdf8" xml:space="preserve">─</text>
<text x="809.40" y="14.50" fill="#38bdf8" xml:space="preserve">─</text>
<text x="818.00" y="14.50" fill="#38bdf8" xml:space="preserve">╮</text>
<text x="1.00" y="33.50" fill="#38bdf8" xml:space="preserve">│</text>
<text x="18.20" y="33.50" fill="#0b1020" font-weight="bold" xml:space="preserve">O</text>
<text x="26.80" y="33.50" fill="#0b1020" font-weight="bold" xml:space="preserve">v</text>
<text x="35.40" y="33.50" fill="#0b1020" font-weight="bold" xml:space="preserve">e</text>
<text x="44.00" y="33.50" fill="#0b1020" font-weight="bold" xml:space="preserve">r</text>
<text x="52.60" y="33.50" fill="#0b1020" font-weight="bold" xml:space="preserve">v</text>
<text x="61.20" y="33.50" fill="#0b1020" font-weight="bold" xml:space="preserve">i</text>
<text x="69.80" y="33.50" fill="#0b1020" font-weight="bold" xml:space="preserve">e</text>
<text x="78.40" y="33.50" fill="#0b1020" font-weight="bold" xml:space="preserve">w</text>
<text x="95.60" y="33.50" fill="#8a93ab" xml:space="preserve">·</text>
<text x="112.80" y="33.50" fill="#8a93ab" xml:space="preserve">D</text>
<text x="121.40" y="33.50" fill="#8a93ab" xml:space="preserve">a</text>
<text x="130.00" y="33.50" fill="#8a93ab" xml:space="preserve">t</text>
<text x="138.60" y="33.50" fill="#8a93ab" xml:space="preserve">a</text>
<text x="147.20" y="33.50" fill="#8a93ab" xml:space="preserve">b</text>
<text x="155.80" y="33.50" fill="#8a93ab" xml:space="preserve">a</text>
<text x="164.40" y="33.50" fill="#8a93ab" xml:space="preserve">s</text>
<text x="173.00" y="33.50" fill="#8a93ab" xml:space="preserve">e</text>
<text x="181.60" y="33.50" fill="#8a93ab" xml:space="preserve">s</text>
<text x="198.80" y="33.50" fill="#8a93ab" xml:space="preserve">·</text>
<text x="216.00" y="33.50" fill="#8a93ab" xml:space="preserve">U</text>
<text x="224.60" y="33.50" fill="#8a93ab" xml:space="preserve">s</text>
<text x="233.20" y="33.50" fill="#8a93ab" xml:space="preserve">e</text>
<text x="241.80" y="33.50" fill="#8a93ab" xml:space="preserve">r</text>
<text x="250.40" y="33.50" fill="#8a93ab" xml:space="preserve">s</text>
<text x="267.60" y="33.50" fill="#8a93ab" xml:space="preserve">·</text>
<text x="284.80" y="33.50" fill="#8a93ab" xml:space="preserve">J</text>
<text x="293.40" y="33.50" fill="#8a93ab" xml:space="preserve">o</text>
<text x="302.00" y="33.50" fill="#8a93ab" xml:space="preserve">b</text>
<text x="310.60" y="33.50" fill="#8a93ab" xml:space="preserve">s</text>
<text x="327.80" y="33.50" fill="#8a93ab" xml:space="preserve">·</text>
<text x="345.00" y="33.50" fill="#8a93ab" xml:space="preserve">M</text>
<text x="353.60" y="33.50" fill="#8a93ab" xml:space="preserve">C</text>
<text x="362.20" y="33.50" fill="#8a93ab" xml:space="preserve">P</text>
<text x="379.40" y="33.50" fill="#8a93ab" xml:space="preserve">&amp;</text>
<text x="396.60" y="33.50" fill="#8a93ab" xml:space="preserve">A</text>
<text x="405.20" y="33.50" fill="#8a93ab" xml:space="preserve">I</text>
<text x="422.40" y="33.50" fill="#8a93ab" xml:space="preserve">·</text>
<text x="439.60" y="33.50" fill="#8a93ab" xml:space="preserve">L</text>
<text x="448.20" y="33.50" fill="#8a93ab" xml:space="preserve">o</text>
<text x="456.80" y="33.50" fill="#8a93ab" xml:space="preserve">g</text>
<text x="465.40" y="33.50" fill="#8a93ab" xml:space="preserve">s</text>
<text x="818.00" y="33.50" fill="#38bdf8" xml:space="preserve">│</text>
<text x="1.00" y="52.50" fill="#38bdf8" xml:space="preserve">╰</text>
<text x="9.60" y="52.50" fill="#38bdf8" xml:space="preserve">─</text>
<text x="18.20" y="52.50" fill="#38bdf8" xml:space="preserve">─</text>
<text x="26.80" y="52.50" fill="#38bdf8" xml:space="preserve">─</text>
<text x="35.40" y="52.50" fill="#38bdf8" xml:space="preserve">─</text>
<text x="44.00" y="52.50" fill="#38bdf8" xml:space="preserve">─</text>
<text x="52.60" y="52.50" fill="#38bdf8" xml:space="preserve">─</text>
<text x="61.20" y="52.50" fill="#38bdf8" xml:space="preserve">─</text>
<text x="69.80" y="52.50" fill="#38bdf8" xml:space="preserve">─</text>
<text x="78.40" y="52.50" fill="#38bdf8" xml:space="preserve">─</text>
<text x="87.00" y="52.50" fill="#38bdf8" xml:space="preserve">─</text>
<text x="95.60" y="52.50" fill="#38bdf8" xml:space="preserve">─</text>
<text x="104.20" y="52.50" fill="#38bdf8" xml:space="preserve">─</text>
<text x="112.80" y="52.50" fill="#38bdf8" xml:space="preserve">─</text>
<text x="121.40" y="52.50" fill="#38bdf8" xml:space="preserve">─</text>
<text x="130.00" y="52.50" fill="#38bdf8" xml:space="preserve">─</text>
<text x="138.60" y="52.50" fill="#38bdf8" xml:space="preserve">─</text>
<text x="147.20" y="52.50" fill="#38bdf8" xml:space="preserve">─</text>
<text x="155.80" y="52.50" fill="#38bdf8" xml:space="preserve">─</text>
<text x="164.40" y="52.50" fill="#38bdf8" xml:space="preserve">─</text>
<text x="173.00" y="52.50" fill="#38bdf8" xml:space="preserve">─</text>
<text x="181.60" y="52.50" fill="#38bdf8" xml:space="preserve">─</text>
<text x="190.20" y="52.50" fill="#38bdf8" xml:space="preserve">─</text>
<text x="198.80" y="52.50" fill="#38bdf8" xml:space="preserve">─</text>
<text x="207.40" y="52.50" fill="#38bdf8" xml:space="preserve">─</text>
<text x="216.00" y="52.50" fill="#38bdf8" xml:space="preserve">─</text>
<text x="224.60" y="52.50" fill="#38bdf8" xml:space="preserve">─</text>
<text x="233.20" y="52.50" fill="#38bdf8" xml:space="preserve">─</text>
<text x="241.80" y="52.50" fill="#38bdf8" xml:space="preserve">─</text>
<text x="250.40" y="52.50" fill="#38bdf8" xml:space="preserve">─</text>
<text x="259.00" y="52.50" fill="#38bdf8" xml:space="preserve">─</text>
<text x="267.60" y="52.50" fill="#38bdf8" xml:space="preserve">─</text>
<text x="276.20" y="52.50" fill="#38bdf8" xml:space="preserve">─</text>
<text x="284.80" y="52.50" fill="#38bdf8" xml:space="preserve">─</text>
<text x="293.40" y="52.50" fill="#38bdf8" xml:space="preserve">─</text>
<text x="302.00" y="52.50" fill="#38bdf8" xml:space="preserve">─</text>
<text x="310.60" y="52.50" fill="#38bdf8" xml:space="preserve">─</text>
<text x="319.20" y="52.50" fill="#38bdf8" xml:space="preserve">─</text>
<text x="327.80" y="52.50" fill="#38bdf8" xml:space="preserve">─</text>
<text x="336.40" y="52.50" fill="#38bdf8" xml:space="preserve">─</text>
<text x="345.00" y="52.50" fill="#38bdf8" xml:space="preserve">─</text>
<text x="353.60" y="52.50" fill="#38bdf8" xml:space="preserve">─</text>
<text x="362.20" y="52.50" fill="#38bdf8" xml:space="preserve">─</text>
<text x="370.80" y="52.50" fill="#38bdf8" xml:space="preserve">─</text>
<text x="379.40" y="52.50" fill="#38bdf8" xml:space="preserve">─</text>
<text x="388.00" y="52.50" fill="#38bdf8" xml:space="preserve">─</text>
<text x="396.60" y="52.50" fill="#38bdf8" xml:space="preserve">─</text>
<text x="405.20" y="52.50" fill="#38bdf8" xml:space="preserve">─</text>
<text x="413.80" y="52.50" fill="#38bdf8" xml:space="preserve">─</text>
<text x="422.40" y="52.50" fill="#38bdf8" xml:space="preserve">─</text>
<text x="431.00" y="52.50" fill="#38bdf8" xml:space="preserve">─</text>
<text x="439.60" y="52.50" fill="#38bdf8" xml:space="preserve">─</text>
<text x="448.20" y="52.50" fill="#38bdf8" xml:space="preserve">─</text>
<text x="456.80" y="52.50" fill="#38bdf8" xml:space="preserve">─</text>
<text x="465.40" y="52.50" fill="#38bdf8" xml:space="preserve">─</text>
<text x="474.00" y="52.50" fill="#38bdf8" xml:space="preserve">─</text>
<text x="482.60" y="52.50" fill="#38bdf8" xml:space="preserve">─</text>
<text x="491.20" y="52.50" fill="#38bdf8" xml:space="preserve">─</text>
<text x="499.80" y="52.50" fill="#38bdf8" xml:space="preserve">─</text>
<text x="508.40" y="52.50" fill="#38bdf8" xml:space="preserve">─</text>
<text x="517.00" y="52.50" fill="#38bdf8" xml:space="preserve">─</text>
<text x="525.60" y="52.50" fill="#38bdf8" xml:space="preserve">─</text>
<text x="534.20" y="52.50" fill="#38bdf8" xml:space="preserve">─</text>
<text x="542.80" y="52.50" fill="#38bdf8" xml:space="preserve">─</text>
<text x="551.40" y="52.50" fill="#38bdf8" xml:space="preserve">─</text>
<text x="560.00" y="52.50" fill="#38bdf8" xml:space="preserve">─</text>
<text x="568.60" y="52.50" fill="#38bdf8" xml:space="preserve">─</text>
<text x="577.20" y="52.50" fill="#38bdf8" xml:space="preserve">─</text>
<text x="585.80" y="52.50" fill="#38bdf8" xml:space="preserve">─</text>
<text x="594.40" y="52.50" fill="#38bdf8" xml:space="preserve">─</text>
<text x="603.00" y="52.50" fill="#38bdf8" xml:space="preserve">─</text>
<text x="611.60" y="52.50" fill="#38bdf8" xml:space="preserve">─</text>
<text x="620.20" y="52.50" fill="#38bdf8" xml:space="preserve">─</text>
<text x="628.80" y="52.50" fill="#38bdf8" xml:space="preserve">─</text>
<text x="637.40" y="52.50" fill="#38bdf8" xml:space="preserve">─</text>
<text x="646.00" y="52.50" fill="#38bdf8" xml:space="preserve">─</text>
<text x="654.60" y="52.50" fill="#38bdf8" xml:space="preserve">─</text>
<text x="663.20" y="52.50" fill="#38bdf8" xml:space="preserve">─</text>
<text x="671.80" y="52.50" fill="#38bdf8" xml:space="preserve">─</text>
<text x="680.40" y="52.50" fill="#38bdf8" xml:space="preserve">─</text>
<text x="689.00" y="52.50" fill="#38bdf8" xml:space="preserve">─</text>
<text x="697.60" y="52.50" fill="#38bdf8" xml:space="preserve">─</text>
<text x="706.20" y="52.50" fill="#38bdf8" xml:space="preserve">─</text>
<text x="714.80" y="52.50" fill="#38bdf8" xml:space="preserve">─</text>
<text x="723.40" y="52.50" fill="#38bdf8" xml:space="preserve">─</text>
<text x="732.00" y="52.50" fill="#38bdf8" xml:space="preserve">─</text>
<text x="740.60" y="52.50" fill="#38bdf8" xml:space="preserve">─</text>
<text x="749.20" y="52.50" fill="#38bdf8" xml:space="preserve">─</text>
<text x="757.80" y="52.50" fill="#38bdf8" xml:space="preserve">─</text>
<text x="766.40" y="52.50" fill="#38bdf8" xml:space="preserve">─</text>
<text x="775.00" y="52.50" fill="#38bdf8" xml:space="preserve">─</text>
<text x="783.60" y="52.50" fill="#38bdf8" xml:space="preserve">─</text>
<text x="792.20" y="52.50" fill="#38bdf8" xml:space="preserve">─</text>
<text x="800.80" y="52.50" fill="#38bdf8" xml:space="preserve">─</text>
<text x="809.40" y="52.50" fill="#38bdf8" xml:space="preserve">─</text>
<text x="818.00" y="52.50" fill="#38bdf8" xml:space="preserve">╯</text>
<text x="1.00" y="71.50" fill="#29313f" xml:space="preserve">╭</text>
<text x="18.20" y="71.50" fill="#38bdf8" font-weight="bold" xml:space="preserve">O</text>
<text x="26.80" y="71.50" fill="#38bdf8" font-weight="bold" xml:space="preserve">v</text>
<text x="35.40" y="71.50" fill="#38bdf8" font-weight="bold" xml:space="preserve">e</text>
<text x="44.00" y="71.50" fill="#38bdf8" font-weight="bold" xml:space="preserve">r</text>
<text x="52.60" y="71.50" fill="#38bdf8" font-weight="bold" xml:space="preserve">v</text>
<text x="61.20" y="71.50" fill="#38bdf8" font-weight="bold" xml:space="preserve">i</text>
<text x="69.80" y="71.50" fill="#38bdf8" font-weight="bold" xml:space="preserve">e</text>
<text x="78.40" y="71.50" fill="#38bdf8" font-weight="bold" xml:space="preserve">w</text>
<text x="95.60" y="71.50" fill="#29313f" xml:space="preserve">─</text>
<text x="104.20" y="71.50" fill="#29313f" xml:space="preserve">─</text>
<text x="112.80" y="71.50" fill="#29313f" xml:space="preserve">─</text>
<text x="121.40" y="71.50" fill="#29313f" xml:space="preserve">─</text>
<text x="130.00" y="71.50" fill="#29313f" xml:space="preserve">─</text>
<text x="138.60" y="71.50" fill="#29313f" xml:space="preserve">─</text>
<text x="147.20" y="71.50" fill="#29313f" xml:space="preserve">─</text>
<text x="155.80" y="71.50" fill="#29313f" xml:space="preserve">─</text>
<text x="164.40" y="71.50" fill="#29313f" xml:space="preserve">─</text>
<text x="173.00" y="71.50" fill="#29313f" xml:space="preserve">─</text>
<text x="181.60" y="71.50" fill="#29313f" xml:space="preserve">─</text>
<text x="190.20" y="71.50" fill="#29313f" xml:space="preserve">─</text>
<text x="198.80" y="71.50" fill="#29313f" xml:space="preserve">─</text>
<text x="207.40" y="71.50" fill="#29313f" xml:space="preserve">─</text>
<text x="216.00" y="71.50" fill="#29313f" xml:space="preserve">─</text>
<text x="224.60" y="71.50" fill="#29313f" xml:space="preserve">─</text>
<text x="233.20" y="71.50" fill="#29313f" xml:space="preserve">─</text>
<text x="241.80" y="71.50" fill="#29313f" xml:space="preserve">─</text>
<text x="250.40" y="71.50" fill="#29313f" xml:space="preserve">─</text>
<text x="259.00" y="71.50" fill="#29313f" xml:space="preserve">─</text>
<text x="267.60" y="71.50" fill="#29313f" xml:space="preserve">─</text>
<text x="276.20" y="71.50" fill="#29313f" xml:space="preserve">─</text>
<text x="284.80" y="71.50" fill="#29313f" xml:space="preserve">─</text>
<text x="293.40" y="71.50" fill="#29313f" xml:space="preserve">─</text>
<text x="302.00" y="71.50" fill="#29313f" xml:space="preserve">─</text>
<text x="310.60" y="71.50" fill="#29313f" xml:space="preserve">─</text>
<text x="319.20" y="71.50" fill="#29313f" xml:space="preserve">─</text>
<text x="327.80" y="71.50" fill="#29313f" xml:space="preserve">─</text>
<text x="336.40" y="71.50" fill="#29313f" xml:space="preserve">─</text>
<text x="345.00" y="71.50" fill="#29313f" xml:space="preserve">─</text>
<text x="353.60" y="71.50" fill="#29313f" xml:space="preserve">─</text>
<text x="362.20" y="71.50" fill="#29313f" xml:space="preserve">─</text>
<text x="370.80" y="71.50" fill="#29313f" xml:space="preserve">─</text>
<text x="379.40" y="71.50" fill="#29313f" xml:space="preserve">─</text>
<text x="388.00" y="71.50" fill="#29313f" xml:space="preserve">─</text>
<text x="396.60" y="71.50" fill="#29313f" xml:space="preserve">─</text>
<text x="405.20" y="71.50" fill="#29313f" xml:space="preserve">─</text>
<text x="413.80" y="71.50" fill="#29313f" xml:space="preserve">─</text>
<text x="422.40" y="71.50" fill="#29313f" xml:space="preserve">─</text>
<text x="431.00" y="71.50" fill="#29313f" xml:space="preserve">─</text>
<text x="439.60" y="71.50" fill="#29313f" xml:space="preserve">─</text>
<text x="448.20" y="71.50" fill="#29313f" xml:space="preserve">─</text>
<text x="456.80" y="71.50" fill="#29313f" xml:space="preserve">─</text>
<text x="465.40" y="71.50" fill="#29313f" xml:space="preserve">─</text>
<text x="474.00" y="71.50" fill="#29313f" xml:space="preserve">─</text>
<text x="482.60" y="71.50" fill="#29313f" xml:space="preserve">─</text>
<text x="491.20" y="71.50" fill="#29313f" xml:space="preserve">─</text>
<text x="499.80" y="71.50" fill="#29313f" xml:space="preserve">─</text>
<text x="508.40" y="71.50" fill="#29313f" xml:space="preserve">─</text>
<text x="517.00" y="71.50" fill="#29313f" xml:space="preserve">─</text>
<text x="525.60" y="71.50" fill="#29313f" xml:space="preserve">─</text>
<text x="534.20" y="71.50" fill="#29313f" xml:space="preserve">─</text>
<text x="542.80" y="71.50" fill="#29313f" xml:space="preserve">─</text>
<text x="551.40" y="71.50" fill="#29313f" xml:space="preserve">─</text>
<text x="560.00" y="71.50" fill="#29313f" xml:space="preserve">─</text>
<text x="568.60" y="71.50" fill="#29313f" xml:space="preserve">─</text>
<text x="577.20" y="71.50" fill="#29313f" xml:space="preserve">─</text>
<text x="585.80" y="71.50" fill="#29313f" xml:space="preserve">─</text>
<text x="594.40" y="71.50" fill="#29313f" xml:space="preserve">─</text>
<text x="603.00" y="71.50" fill="#29313f" xml:space="preserve">─</text>
<text x="611.60" y="71.50" fill="#29313f" xml:space="preserve">─</text>
<text x="620.20" y="71.50" fill="#29313f" xml:space="preserve">─</text>
<text x="628.80" y="71.50" fill="#29313f" xml:space="preserve">─</text>
<text x="637.40" y="71.50" fill="#29313f" xml:space="preserve">─</text>
<text x="646.00" y="71.50" fill="#29313f" xml:space="preserve">─</text>
<text x="654.60" y="71.50" fill="#29313f" xml:space="preserve">─</text>
<text x="663.20" y="71.50" fill="#29313f" xml:space="preserve">─</text>
<text x="671.80" y="71.50" fill="#29313f" xml:space="preserve">─</text>
<text x="680.40" y="71.50" fill="#29313f" xml:space="preserve">─</text>
<text x="689.00" y="71.50" fill="#29313f" xml:space="preserve">─</text>
<text x="697.60" y="71.50" fill="#29313f" xml:space="preserve">─</text>
<text x="706.20" y="71.50" fill="#29313f" xml:space="preserve">─</text>
<text x="714.80" y="71.50" fill="#29313f" xml:space="preserve">─</text>
<text x="723.40" y="71.50" fill="#29313f" xml:space="preserve">─</text>
<text x="732.00" y="71.50" fill="#29313f" xml:space="preserve">─</text>
<text x="740.60" y="71.50" fill="#29313f" xml:space="preserve">─</text>
<text x="749.20" y="71.50" fill="#29313f" xml:space="preserve">─</text>
<text x="757.80" y="71.50" fill="#29313f" xml:space="preserve">─</text>
<text x="766.40" y="71.50" fill="#29313f" xml:space="preserve">─</text>
<text x="775.00" y="71.50" fill="#29313f" xml:space="preserve">─</text>
<text x="783.60" y="71.50" fill="#29313f" xml:space="preserve">─</text>
<text x="792.20" y="71.50" fill="#29313f" xml:space="preserve">─</text>
<text x="800.80" y="71.50" fill="#29313f" xml:space="preserve">─</text>
<text x="809.40" y="71.50" fill="#29313f" xml:space="preserve">─</text>
<text x="818.00" y="71.50" fill="#29313f" xml:space="preserve">╮</text>
<text x="1.00" y="90.50" fill="#29313f" xml:space="preserve">│</text>
<text x="9.60" y="90.50" fill="#c8d3f5" xml:space="preserve">S</text>
<text x="18.20" y="90.50" fill="#c8d3f5" xml:space="preserve">t</text>
<text x="26.80" y="90.50" fill="#c8d3f5" xml:space="preserve">a</text>
<text x="35.40" y="90.50" fill="#c8d3f5" xml:space="preserve">t</text>
<text x="44.00" y="90.50" fill="#c8d3f5" xml:space="preserve">u</text>
<text x="52.60" y="90.50" fill="#c8d3f5" xml:space="preserve">s</text>
<text x="61.20" y="90.50" fill="#c8d3f5" xml:space="preserve">:</text>
<text x="112.80" y="90.50" fill="#c8d3f5" xml:space="preserve">o</text>
<text x="121.40" y="90.50" fill="#c8d3f5" xml:space="preserve">k</text>
<text x="138.60" y="90.50" fill="#c8d3f5" xml:space="preserve">v</text>
<text x="147.20" y="90.50" fill="#c8d3f5" xml:space="preserve">1</text>
<text x="155.80" y="90.50" fill="#c8d3f5" xml:space="preserve">.</text>
<text x="164.40" y="90.50" fill="#c8d3f5" xml:space="preserve">0</text>
<text x="173.00" y="90.50" fill="#c8d3f5" xml:space="preserve">.</text>
<text x="181.60" y="90.50" fill="#c8d3f5" xml:space="preserve">0</text>
<text x="818.00" y="90.50" fill="#29313f" xml:space="preserve">│</text>
<text x="1.00" y="109.50" fill="#29313f" xml:space="preserve">│</text>
<text x="9.60" y="109.50" fill="#c8d3f5" xml:space="preserve">D</text>
<text x="18.20" y="109.50" fill="#c8d3f5" xml:space="preserve">a</text>
<text x="26.80" y="109.50" fill="#c8d3f5" xml:space="preserve">t</text>
<text x="35.40" y="109.50" fill="#c8d3f5" xml:space="preserve">a</text>
<text x="44.00" y="109.50" fill="#c8d3f5" xml:space="preserve">b</text>
<text x="52.60" y="109.50" fill="#c8d3f5" xml:space="preserve">a</text>
<text x="61.20" y="109.50" fill="#c8d3f5" xml:space="preserve">s</text>
<text x="69.80" y="109.50" fill="#c8d3f5" xml:space="preserve">e</text>
<text x="78.40" y="109.50" fill="#c8d3f5" xml:space="preserve">s</text>
<text x="87.00" y="109.50" fill="#c8d3f5" xml:space="preserve">:</text>
<text x="112.80" y="109.50" fill="#c8d3f5" xml:space="preserve">4</text>
<text x="818.00" y="109.50" fill="#29313f" xml:space="preserve">│</text>
<text x="1.00" y="128.50" fill="#29313f" xml:space="preserve">│</text>
<text x="9.60" y="128.50" fill="#c8d3f5" xml:space="preserve">U</text>
<text x="18.20" y="128.50" fill="#c8d3f5" xml:space="preserve">s</text>
<text x="26.80" y="128.50" fill="#c8d3f5" xml:space="preserve">e</text>
<text x="35.40" y="128.50" fill="#c8d3f5" xml:space="preserve">r</text>
<text x="44.00" y="128.50" fill="#c8d3f5" xml:space="preserve">s</text>
<text x="52.60" y="128.50" fill="#c8d3f5" xml:space="preserve">:</text>
<text x="112.80" y="128.50" fill="#c8d3f5" xml:space="preserve">2</text>
<text x="818.00" y="128.50" fill="#29313f" xml:space="preserve">│</text>
<text x="1.00" y="147.50" fill="#29313f" xml:space="preserve">│</text>
<text x="9.60" y="147.50" fill="#c8d3f5" xml:space="preserve">C</text>
<text x="18.20" y="147.50" fill="#c8d3f5" xml:space="preserve">a</text>
<text x="26.80" y="147.50" fill="#c8d3f5" xml:space="preserve">r</text>
<text x="35.40" y="147.50" fill="#c8d3f5" xml:space="preserve">d</text>
<text x="44.00" y="147.50" fill="#c8d3f5" xml:space="preserve">s</text>
<text x="52.60" y="147.50" fill="#c8d3f5" xml:space="preserve">:</text>
<text x="112.80" y="147.50" fill="#c8d3f5" xml:space="preserve">7</text>
<text x="818.00" y="147.50" fill="#29313f" xml:space="preserve">│</text>
<text x="1.00" y="166.50" fill="#29313f" xml:space="preserve">│</text>
<text x="9.60" y="166.50" fill="#c8d3f5" xml:space="preserve">D</text>
<text x="18.20" y="166.50" fill="#c8d3f5" xml:space="preserve">a</text>
<text x="26.80" y="166.50" fill="#c8d3f5" xml:space="preserve">s</text>
<text x="35.40" y="166.50" fill="#c8d3f5" xml:space="preserve">h</text>
<text x="44.00" y="166.50" fill="#c8d3f5" xml:space="preserve">b</text>
<text x="52.60" y="166.50" fill="#c8d3f5" xml:space="preserve">o</text>
<text x="61.20" y="166.50" fill="#c8d3f5" xml:space="preserve">a</text>
<text x="69.80" y="166.50" fill="#c8d3f5" xml:space="preserve">r</text>
<text x="78.40" y="166.50" fill="#c8d3f5" xml:space="preserve">d</text>
<text x="87.00" y="166.50" fill="#c8d3f5" xml:space="preserve">s</text>
<text x="95.60" y="166.50" fill="#c8d3f5" xml:space="preserve">:</text>
<text x="112.80" y="166.50" fill="#c8d3f5" xml:space="preserve">3</text>
<text x="818.00" y="166.50" fill="#29313f" xml:space="preserve">│</text>
<text x="1.00" y="185.50" fill="#29313f" xml:space="preserve">│</text>
<text x="818.00" y="185.50" fill="#29313f" xml:space="preserve">│</text>
<text x="1.00" y="204.50" fill="#29313f" xml:space="preserve">│</text>
<text x="818.00" y="204.50" fill="#29313f" xml:space="preserve">│</text>
<text x="1.00" y="223.50" fill="#29313f" xml:space="preserve">│</text>
<text x="818.00" y="223.50" fill="#29313f" xml:space="preserve">│</text>
<text x="1.00" y="242.50" fill="#29313f" xml:space="preserve">│</text>
<text x="818.00" y="242.50" fill="#29313f" xml:space="preserve">│</text>
<text x="1.00" y="261.50" fill="#29313f" xml:space="preserve">│</text>
<text x="818.00" y="261.50" fill="#29313f" xml:space="preserve">│</text>
<text x="1.00" y="280.50" fill="#29313f" xml:space="preserve">│</text>
<text x="818.00" y="280.50" fill="#29313f" xml:space="preserve">│</text>
<text x="1.00" y="299.50" fill="#29313f" xml:space="preserve">│</text>
<text x="818.00" y="299.50" fill="#29313f" xml:space="preserve">│</text>
<text x="1.00" y="318.50" fill="#29313f" xml:space="preserve">│</text>
<text x="818.00" y="318.50" fill="#29313f" xml:space="preserve">│</text>
<text x="1.00" y="337.50" fill="#29313f" xml:space="preserve">│</text>
<text x="818.00" y="337.50" fill="#29313f" xml:space="preserve">│</text>
<text x="1.00" y="356.50" fill="#29313f" xml:space="preserve">│</text>
<text x="818.00" y="356.50" fill="#29313f" xml:space="preserve">│</text>
<text x="1.00" y="375.50" fill="#29313f" xml:space="preserve">│</text>
<text x="818.00" y="375.50" fill="#29313f" xml:space="preserve">│</text>
<text x="1.00" y="394.50" fill="#29313f" xml:space="preserve">│</text>
<text x="818.00" y="394.50" fill="#29313f" xml:space="preserve">│</text>
<text x="1.00" y="413.50" fill="#29313f" xml:space="preserve">│</text>
<text x="818.00" y="413.50" fill="#29313f" xml:space="preserve">│</text>
<text x="1.00" y="432.50" fill="#29313f" xml:space="preserve">│</text>
<text x="818.00" y="432.50" fill="#29313f" xml:space="preserve">│</text>
<text x="1.00" y="451.50" fill="#29313f" xml:space="preserve">│</text>
<text x="818.00" y="451.50" fill="#29313f" xml:space="preserve">│</text>
<text x="1.00" y="470.50" fill="#29313f" xml:space="preserve">╰</text>
<text x="9.60" y="470.50" fill="#29313f" xml:space="preserve">─</text>
<text x="18.20" y="470.50" fill="#29313f" xml:space="preserve">─</text>
<text x="26.80" y="470.50" fill="#29313f" xml:space="preserve">─</text>
<text x="35.40" y="470.50" fill="#29313f" xml:space="preserve">─</text>
<text x="44.00" y="470.50" fill="#29313f" xml:space="preserve">─</text>
<text x="52.60" y="470.50" fill="#29313f" xml:space="preserve">─</text>
<text x="61.20" y="470.50" fill="#29313f" xml:space="preserve">─</text>
<text x="69.80" y="470.50" fill="#29313f" xml:space="preserve">─</text>
<text x="78.40" y="470.50" fill="#29313f" xml:space="preserve">─</text>
<text x="87.00" y="470.50" fill="#29313f" xml:space="preserve">─</text>
<text x="95.60" y="470.50" fill="#29313f" xml:space="preserve">─</text>
<text x="104.20" y="470.50" fill="#29313f" xml:space="preserve">─</text>
<text x="112.80" y="470.50" fill="#29313f" xml:space="preserve">─</text>
<text x="121.40" y="470.50" fill="#29313f" xml:space="preserve">─</text>
<text x="130.00" y="470.50" fill="#29313f" xml:space="preserve">─</text>
<text x="138.60" y="470.50" fill="#29313f" xml:space="preserve">─</text>
<text x="147.20" y="470.50" fill="#29313f" xml:space="preserve">─</text>
<text x="155.80" y="470.50" fill="#29313f" xml:space="preserve">─</text>
<text x="164.40" y="470.50" fill="#29313f" xml:space="preserve">─</text>
<text x="173.00" y="470.50" fill="#29313f" xml:space="preserve">─</text>
<text x="181.60" y="470.50" fill="#29313f" xml:space="preserve">─</text>
<text x="190.20" y="470.50" fill="#29313f" xml:space="preserve">─</text>
<text x="198.80" y="470.50" fill="#29313f" xml:space="preserve">─</text>
<text x="207.40" y="470.50" fill="#29313f" xml:space="preserve">─</text>
<text x="216.00" y="470.50" fill="#29313f" xml:space="preserve">─</text>
<text x="224.60" y="470.50" fill="#29313f" xml:space="preserve">─</text>
<text x="233.20" y="470.50" fill="#29313f" xml:space="preserve">─</text>
<text x="241.80" y="470.50" fill="#29313f" xml:space="preserve">─</text>
<text x="250.40" y="470.50" fill="#29313f" xml:space="preserve">─</text>
<text x="259.00" y="470.50" fill="#29313f" xml:space="preserve">─</text>
<text x="267.60" y="470.50" fill="#29313f" xml:space="preserve">─</text>
<text x="276.20" y="470.50" fill="#29313f" xml:space="preserve">─</text>
<text x="284.80" y="470.50" fill="#29313f" xml:space="preserve">─</text>
<text x="293.40" y="470.50" fill="#29313f" xml:space="preserve">─</text>
<text x="302.00" y="470.50" fill="#29313f" xml:space="preserve">─</text>
<text x="310.60" y="470.50" fill="#29313f" xml:space="preserve">─</text>
<text x="319.20" y="470.50" fill="#29313f" xml:space="preserve">─</text>
<text x="327.80" y="470.50" fill="#29313f" xml:space="preserve">─</text>
<text x="336.40" y="470.50" fill="#29313f" xml:space="preserve">─</text>
<text x="345.00" y="470.50" fill="#29313f" xml:space="preserve">─</text>
<text x="353.60" y="470.50" fill="#29313f" xml:space="preserve">─</text>
<text x="362.20" y="470.50" fill="#29313f" xml:space="preserve">─</text>
<text x="370.80" y="470.50" fill="#29313f" xml:space="preserve">─</text>
<text x="379.40" y="470.50" fill="#29313f" xml:space="preserve">─</text>
<text x="388.00" y="470.50" fill="#29313f" xml:space="preserve">─</text>
<text x="396.60" y="470.50" fill="#29313f" xml:space="preserve">─</text>
<text x="405.20" y="470.50" fill="#29313f" xml:space="preserve">─</text>
<text x="413.80" y="470.50" fill="#29313f" xml:space="preserve">─</text>
<text x="422.40" y="470.50" fill="#29313f" xml:space="preserve">─</text>
<text x="431.00" y="470.50" fill="#29313f" xml:space="preserve">─</text>
<text x="439.60" y="470.50" fill="#29313f" xml:space="preserve">─</text>
<text x="448.20" y="470.50" fill="#29313f" xml:space="preserve">─</text>
<text x="456.80" y="470.50" fill="#29313f" xml:space="preserve">─</text>
<text x="465.40" y="470.50" fill="#29313f" xml:space="preserve">─</text>
<text x="474.00" y="470.50" fill="#29313f" xml:space="preserve">─</text>
<text x="482.60" y="470.50" fill="#29313f" xml:space="preserve">─</text>
<text x="491.20" y="470.50" fill="#29313f" xml:space="preserve">─</text>
<text x="499.80" y="470.50" fill="#29313f" xml:space="preserve">─</text>
<text x="508.40" y="470.50" fill="#29313f" xml:space="preserve">─</text>
<text x="517.00" y="470.50" fill="#29313f" xml:space="preserve">─</text>
<text x="525.60" y="470.50" fill="#29313f" xml:space="preserve">─</text>
<text x="534.20" y="470.50" fill="#29313f" xml:space="preserve">─</text>
<text x="542.80" y="470.50" fill="#29313f" xml:space="preserve">─</text>
<text x="551.40" y="470.50" fill="#29313f" xml:space="preserve">─</text>
<text x="560.00" y="470.50" fill="#29313f" xml:space="preserve">─</text>
<text x="568.60" y="470.50" fill="#29313f" xml:space="preserve">─</text>
<text x="577.20" y="470.50" fill="#29313f" xml:space="preserve">─</text>
<text x="585.80" y="470.50" fill="#29313f" xml:space="preserve">─</text>
<text x="594.40" y="470.50" fill="#29313f" xml:space="preserve">─</text>
<text x="603.00" y="470.50" fill="#29313f" xml:space="preserve">─</text>
<text x="611.60" y="470.50" fill="#29313f" xml:space="preserve">─</text>
<text x="620.20" y="470.50" fill="#29313f" xml:space="preserve">─</text>
<text x="628.80" y="470.50" fill="#29313f" xml:space="preserve">─</text>
<text x="637.40" y="470.50" fill="#29313f" xml:space="preserve">─</text>
<text x="646.00" y="470.50" fill="#29313f" xml:space="preserve">─</text>
<text x="654.60" y="470.50" fill="#29313f" xml:space="preserve">─</text>
<text x="663.20" y="470.50" fill="#29313f" xml:space="preserve">─</text>
<text x="671.80" y="470.50" fill="#29313f" xml:space="preserve">─</text>
<text x="680.40" y="470.50" fill="#29313f" xml:space="preserve">─</text>
<text x="689.00" y="470.50" fill="#29313f" xml:space="preserve">─</text>
<text x="697.60" y="470.50" fill="#29313f" xml:space="preserve">─</text>
<text x="706.20" y="470.50" fill="#29313f" xml:space="preserve">─</text>
<text x="714.80" y="470.50" fill="#29313f" xml:space="preserve">─</text>
<text x="723.40" y="470.50" fill="#29313f" xml:space="preserve">─</text>
<text x="732.00" y="470.50" fill="#29313f" xml:space="preserve">─</text>
<text x="740.60" y="470.50" fill="#29313f" xml:space="preserve">─</text>
<text x="749.20" y="470.50" fill="#29313f" xml:space="preserve">─</text>
<text x="757.80" y="470.50" fill="#29313f" xml:space="preserve">─</text>
<text x="766.40" y="470.50" fill="#29313f" xml:space="preserve">─</text>
<text x="775.00" y="470.50" fill="#29313f" xml:space="preserve">─</text>
<text x="783.60" y="470.50" fill="#29313f" xml:space="preserve">─</text>
<text x="792.20" y="470.50" fill="#29313f" xml:space="preserve">─</text>
<text x="800.80" y="470.50" fill="#29313f" xml:space="preserve">─</text>
<text x="809.40" y="470.50" fill="#29313f" xml:space="preserve">─</text>
<text x="818.00" y="470.50" fill="#29313f" xml:space="preserve">╯</text>
<text x="9.60" y="489.50" fill="#38bdf8" xml:space="preserve">←</text>
<text x="18.20" y="489.50" fill="#38bdf8" xml:space="preserve">/</text>
<text x="26.80" y="489.50" fill="#38bdf8" xml:space="preserve">→</text>
<text x="44.00" y="489.50" fill="#8a93ab" xml:space="preserve">o</text>
<text x="52.60" y="489.50" fill="#8a93ab" xml:space="preserve">r</text>
<text x="69.80" y="489.50" fill="#38bdf8" xml:space="preserve">T</text>
<text x="78.40" y="489.50" fill="#38bdf8" xml:space="preserve">a</text>
<text x="87.00" y="489.50" fill="#38bdf8" xml:space="preserve">b</text>
<text x="104.20" y="489.50" fill="#8a93ab" xml:space="preserve">s</text>
<text x="112.80" y="489.50" fill="#8a93ab" xml:space="preserve">w</text>
<text x="121.40" y="489.50" fill="#8a93ab" xml:space="preserve">i</text>
<text x="130.00" y="489.50" fill="#8a93ab" xml:space="preserve">t</text>
<text x="138.60" y="489.50" fill="#8a93ab" xml:space="preserve">c</text>
<text x="147.20" y="489.50" fill="#8a93ab" xml:space="preserve">h</text>
<text x="164.40" y="489.50" fill="#8a93ab" xml:space="preserve">·</text>
<text x="181.60" y="489.50" fill="#38bdf8" xml:space="preserve">1</text>
<text x="190.20" y="489.50" fill="#38bdf8" xml:space="preserve">-</text>
<text x="198.80" y="489.50" fill="#38bdf8" xml:space="preserve">6</text>
<text x="216.00" y="489.50" fill="#8a93ab" xml:space="preserve">j</text>
<text x="224.60" y="489.50" fill="#8a93ab" xml:space="preserve">u</text>
<text x="233.20" y="489.50" fill="#8a93ab" xml:space="preserve">m</text>
<text x="241.80" y="489.50" fill="#8a93ab" xml:space="preserve">p</text>
<text x="259.00" y="489.50" fill="#8a93ab" xml:space="preserve">·</text>
<text x="276.20" y="489.50" fill="#38bdf8" xml:space="preserve">r</text>
<text x="293.40" y="489.50" fill="#8a93ab" xml:space="preserve">r</text>
<text x="302.00" y="489.50" fill="#8a93ab" xml:space="preserve">e</text>
<text x="310.60" y="489.50" fill="#8a93ab" xml:space="preserve">f</text>
<text x="319.20" y="489.50" fill="#8a93ab" xml:space="preserve">r</text>
<text x="327.80" y="489.50" fill="#8a93ab" xml:space="preserve">e</text>
<text x="336.40" y="489.50" fill="#8a93ab" xml:space="preserve">s</text>
<text x="345.00" y="489.50" fill="#8a93ab" xml:space="preserve">h</text>
<text x="362.20" y="489.50" fill="#8a93ab" xml:space="preserve">·</text>
<text x="379.40" y="489.50" fill="#38bdf8" xml:space="preserve">q</text>
<text x="396.60" y="489.50" fill="#8a93ab" xml:space="preserve">q</text>
<text x="405.20" y="489.50" fill="#8a93ab" xml:space="preserve">u</text>
<text x="413.80" y="489.50" fill="#8a93ab" xml:space="preserve">i</text>
<text x="422.40" y="489.50" fill="#8a93ab" xml:space="preserve">t</text>
</svg>
